<svg width="37" height="38" viewBox="0 0 37 38" fill="none" xmlns="http://www.w3.org/2000/svg">
<path fill-rule="evenodd" clip-rule="evenodd" d="M28.3713 9.39829C25.7582 6.79296 22.2833 5.35749 18.5817 5.35596C10.9535 5.35596 4.74371 11.5384 4.74063 19.138C4.74063 21.5667 5.37733 23.9372 6.58754 26.0282L4.625 33.1687L11.9618 31.2512C13.9845 32.3489 16.26 32.9277 18.5755 32.9292H18.5817C26.2083 32.9292 32.4182 26.7467 32.4212 19.1472C32.4212 15.4656 30.9844 12.0036 28.3713 9.39829ZM18.5817 30.6033H18.5771C16.5128 30.6017 14.4886 30.0506 12.7218 29.0051L12.3025 28.7564L7.94883 29.894L9.10971 25.6674L8.83683 25.2345C7.68521 23.4106 7.07779 21.3027 7.07779 19.138C7.08088 12.8219 12.2408 7.68341 18.5863 7.68341C21.6589 7.68494 24.5464 8.87784 26.7186 11.0426C28.8893 13.2088 30.0856 16.0859 30.0841 19.1472C30.081 25.4632 24.921 30.6033 18.5817 30.6033ZM24.8917 22.0227C24.5449 21.8492 22.846 21.0171 22.5284 20.902C22.2123 20.7868 21.9826 20.73 21.7514 21.0739C21.5201 21.4178 20.8572 22.1931 20.6552 22.4234C20.4533 22.6537 20.2513 22.6813 19.906 22.5094C19.5607 22.3374 18.446 21.9736 17.1248 20.8007C16.0965 19.8872 15.4028 18.7603 15.2008 18.4149C14.9989 18.0694 15.1792 17.8837 15.3535 17.7117C15.5092 17.5582 15.6988 17.3095 15.8715 17.1084C16.0441 16.9072 16.1012 16.7645 16.2168 16.5342C16.3324 16.3039 16.2754 16.1028 16.1875 15.9308C16.1012 15.7573 15.409 14.0624 15.1207 13.3731C14.8416 12.7052 14.5564 12.7943 14.3437 12.7851C14.1432 12.7759 13.912 12.7728 13.6823 12.7728C13.451 12.7728 13.0764 12.8588 12.7588 13.2027C12.4412 13.5481 11.5486 14.3802 11.5486 16.0751C11.5486 17.7701 12.7881 19.4082 12.9608 19.6385C13.1335 19.8688 15.3997 23.3461 18.8685 24.8384C19.6948 25.193 20.3392 25.4049 20.8402 25.5646C21.6681 25.8271 22.422 25.7887 23.0186 25.7012C23.6831 25.6029 25.0644 24.8691 25.3527 24.0646C25.641 23.2601 25.641 22.5708 25.5547 22.4265C25.4683 22.2822 25.2355 22.1947 24.8917 22.0227Z" fill="#461F09"/>
</svg>
